#!OML:ASF E:\Steps\Project 1\Capture day 1\Session 2\Subject.ASF
:FULLY-SPECIFIED
:DEGREES
422
root 9.51442 13.2124 18.7223 11.317 -73.5252 -347.512
lowerback -11.8718 -0.855642 -5.1195
upperback -0.162669 -0.350982 -1.98369
thorax 6.5216 -0.321535 0.730585
lowerneck -1.21378 -3.15328 -0.26783
upperneck -14.1177 -4.11888 3.90819
head -4.33585 -2.3251 1.50712
rclavicle -3.90612e-014 -6.0033e-014
rhumerus -28.7153 -18.1752 -81.2944
rradius 23.6194
rwrist 14.5109
rhand -12.2336 -52.469
rfingers 7.12502
rthumb 13.8319 -81.9891
lclavicle -3.90612e-014 -6.0033e-014
lhumerus -25.3674 -6.44461 84.7044
lradius 22.511
lwrist -4.56281
lhand -31.5107 -22.8185
lfingers 7.12502
lthumb -4.77627 7.10765
rfemur -60.3425 -0.430595 23.8689
rtibia 83.7666
rfoot -50.9534 -17.267
rtoes -35.107
lfemur -64.973 -9.10233 -16.9774
ltibia 82.65
lfoot -30.1898 -3.01286
ltoes -47.3815
423
root 9.54261 13.2693 18.7322 10.7304 -73.9037 -346.84
lowerback -11.741 -0.829132 -5.02193
upperback -0.361926 -0.345606 -2.0844
thorax 6.23405 -0.308324 0.574621
lowerneck -1.86687 -2.82712 0.356933
upperneck -13.8449 -3.75367 3.22229
head -4.14346 -2.14053 1.13365
rclavicle -2.65378e-014 -1.74931e-014
rhumerus -29.2341 -20.485 -80.5259
rradius 23.0356
rwrist 15.637
rhand -12.4548 -52.4624
rfingers 7.12502
rthumb 13.6187 -81.9969
lclavicle -2.65378e-014 -1.74931e-014
lhumerus -25.1633 -6.72025 85.0279
lradius 22.4078
lwrist -3.9722
lhand -32.0147 -21.9211
lfingers 7.12502
lthumb -5.26294 7.99355
rfemur -60.1086 -0.108389 23.6264
rtibia 83.4472
rfoot -51.3507 -17.7806
rtoes -35.2399
lfemur -64.6407 -9.09795 -17.1624
ltibia 81.9032
lfoot -30.2676 -2.94955
ltoes -47.8275
424
root 9.56619 13.3314 18.7462 10.1059 -74.4054 -346.221
lowerback -11.7012 -0.805328 -4.93677
upperback -0.488451 -0.332411 -2.16994
thorax 6.07544 -0.295284 0.441031
lowerneck -2.10578 -2.67759 0.825393
upperneck -13.7265 -3.58891 2.87154
head -4.07288 -2.06578 0.923082
rclavicle -1.71949e-014 4.53229e-014
rhumerus -29.5781 -22.1781 -79.9193
rradius 22.4245
rwrist 16.2893
rhand -12.612 -52.6878
rfingers 7.12502
rthumb 13.4671 -82.2324
lclavicle -1.71949e-014 4.53229e-014
lhumerus -24.8492 -6.40398 85.0353
lradius 22.0667
lwrist -4.26765
lhand -32.0002 -21.6305
lfingers 7.12502
lthumb -5.24893 8.2845
rfemur -59.7496 0.00662962 23.4576
rtibia 83.0344
rfoot -51.7324 -18.1471
rtoes -35.1578
lfemur -64.1002 -9.12804 -17.2901
ltibia 81.0231
lfoot -30.2637 -2.96197
ltoes -47.9982
425
root 9.58637 13.3994 18.7585 9.52966 -74.8548 -345.77
lowerback -11.684 -0.797393 -4.78249
upperback -0.500002 -0.341551 -2.23084
thorax 6.05241 -0.294562 0.289154
lowerneck -1.96366 -2.5727 0.67143
upperneck -13.7048 -3.44867 2.83748
head -4.09157 -1.9865 0.93703
rclavicle -7.65321e-015 -2.54444e-014
rhumerus -29.8808 -24.8812 -78.9114
rradius 21.7242
rwrist 18.2515
rhand -12.3863 -52.5617
rfingers 7.12502
rthumb 13.6847 -82.0918
lclavicle -7.65321e-015 -2.54444e-014
lhumerus -24.2547 -5.44126 84.814
lradius 21.4729
lwrist -5.36166
lhand -31.6468 -21.409
lfingers 7.12502
lthumb -4.90773 8.5142
rfemur -59.2018 0.179259 23.3696
rtibia 82.5808
rfoot -52.1413 -18.7376
rtoes -35.8964
lfemur -63.4245 -9.20062 -17.3513
ltibia 80.0679
lfoot -30.1619 -3.01135
ltoes -48.0596
426
root 9.61093 13.4715 18.7716 9.19077 -75.2929 -345.425
lowerback -11.7986 -0.773592 -4.52972
upperback -0.506981 -0.333628 -2.29247
thorax 6.10691 -0.284003 0.0823654
lowerneck -1.89829 -2.50827 0.762635
upperneck -13.6908 -3.36485 2.78114
head -4.1028 -1.94721 0.901243
rclavicle 2.36554e-014 -1.63003e-014
rhumerus -29.7153 -25.0289 -78.9092
rradius 20.9588
rwrist 17.8346
rhand -12.1281 -52.4108
rfingers 7.12502
rthumb 13.9335 -81.9239
lclavicle 2.36554e-014 -1.63003e-014
lhumerus -23.6461 -4.85847 84.7012
lradius 21.0077
lwrist -5.97341
lhand -31.4284 -20.7765
lfingers 7.12502
lthumb -4.69681 9.15149
rfemur -58.6428 0.928694 22.342
rtibia 77.1685
rfoot -45.537 -23.776
rtoes -44.9297
lfemur -62.8988 -9.33651 -17.2964
ltibia 79.0662
lfoot -30.1019 -3.09879
ltoes -48.2294
427
root 9.63658 13.5447 18.7871 7.79524 -75.8799 -343.93
lowerback -11.9898 -0.739422 -4.54967
upperback -0.543615 -0.269888 -2.43846
thorax 6.17258 -0.253826 -0.0515632
lowerneck -1.74017 -2.51544 0.28766
upperneck -13.8127 -3.34698 3.10582
head -4.16362 -1.93178 1.0975
rclavicle 1.76918e-014 -3.97569e-016
rhumerus -29.9113 -27.1168 -78.1441
rradius 20.4542
rwrist 19.5995
rhand -11.5462 -52.1448
rfingers 7.12502
rthumb 14.4942 -81.6185
lclavicle 1.76918e-014 -3.97569e-016
lhumerus -23.2055 -4.74188 84.6687
lradius 20.6851
lwrist -6.05465
lhand -31.3614 -20.694
lfingers 7.12502
lthumb -4.63216 9.23532
rfemur -58.2657 1.83131 21.1586
rtibia 76.3175
rfoot -47.5315 -18.1729
rtoes -34.2288
lfemur -62.3495 -9.51098 -17.5363
ltibia 77.92
lfoot -30.0586 -2.75349
ltoes -48.4211
428
root 9.66089 13.6228 18.8014 6.05548 -76.4586 -342.099
lowerback -12.1614 -0.716945 -4.67109
upperback -0.604953 -0.210902 -2.5869
thorax 6.20184 -0.228507 -0.13136
lowerneck -1.64373 -2.46489 0.498436
upperneck -13.792 -3.2919 2.92616
head -4.18223 -1.90706 1.00087
rclavicle -2.10712e-014 1.19271e-014
rhumerus -29.7907 -27.7542 -77.8775
rradius 19.6959
rwrist 19.9907
rhand -11.5118 -52.2014
rfingers 7.12502
rthumb 14.5274 -81.6728
lclavicle -2.10712e-014 1.19271e-014
lhumerus -22.8294 -4.45377 84.599
lradius 20.3206
lwrist -6.26326
lhand -31.318 -21.0402
lfingers 7.12502
lthumb -4.59021 8.89002
rfemur -57.9793 2.2784 20.5954
rtibia 75.2883
rfoot -47.0377 -18.8454
rtoes -35.2149
lfemur -61.7579 -9.67056 -17.8651
ltibia 76.7034
lfoot -29.9462 -2.55565
ltoes -48.5606
429
root 9.68488 13.7066 18.8136 5.657 -76.9391 -341.624
lowerback -12.3323 -0.717397 -4.52078
upperback -0.672816 -0.226823 -2.56768
thorax 6.2252 -0.23265 -0.199471
lowerneck -1.47599 -2.43328 0.255151
upperneck -13.8885 -3.24019 3.0388
head -4.24453 -1.87658 1.08508
rclavicle -1.66979e-014 -7.95139e-016
rhumerus -29.9906 -29.6412 -77.0277
rradius 19.1079
rwrist 21.9578
rhand -11.4885 -52.142
rfingers 7.12502
rthumb 14.5499 -81.6118
lclavicle -1.66979e-014 -7.95139e-016
lhumerus -22.4727 -4.1486 84.6762
lradius 19.9088
lwrist -6.23348
lhand -31.2772 -20.7638
lfingers 7.12502
lthumb -4.55078 9.16737
rfemur -57.6579 2.81254 20.205
rtibia 74.2238
rfoot -47.0417 -17.6409
rtoes -31.6333
lfemur -61.2383 -9.82839 -17.7535
ltibia 75.4934
lfoot -29.8804 -2.29144
ltoes -48.6649
430
root 9.70635 13.7913 18.8262 5.66268 -77.4546 -341.538
lowerback -12.555 -0.749798 -4.35253
upperback -0.727564 -0.288728 -2.45124
thorax 6.29302 -0.260159 -0.184125
lowerneck -1.66798 -2.16166 0.382293
upperneck -13.7925 -2.91697 2.65813
head -4.18498 -1.70515 0.920034
rclavicle 9.34288e-015 -1.59028e-015
rhumerus -29.7512 -30.0199 -76.7951
rradius 18.4693
rwrist 22.5242
rhand -11.1332 -51.8917
rfingers 7.12502
rthumb 14.8921 -81.3364
lclavicle 9.34288e-015 -1.59028e-015
lhumerus -22.214 -4.16887 84.9
lradius 19.6216
lwrist -5.87031
lhand -31.4825 -20.0672
lfingers 7.12502
lthumb -4.74908 9.85956
rfemur -57.3396 3.25922 20.1039
rtibia 72.9818
rfoot -46.2152 -18.3389
rtoes -33.4754
lfemur -60.7207 -9.95784 -17.5609
ltibia 74.2216
lfoot -29.7942 -1.79496
ltoes -48.6819
431
root 9.72565 13.8791 18.8376 5.20636 -77.9291 -341.002
lowerback -12.7892 -0.825601 -4.38236
upperback -0.746035 -0.37799 -2.34783
thorax 6.40791 -0.307697 -0.0772558
lowerneck -1.92829 -1.88964 0.505394
upperneck -13.6263 -2.58053 2.40348
head -4.08386 -1.53164 0.79622
rclavicle -8.94531e-016 2.8625e-014
rhumerus -29.4851 -30.8585 -76.4165
rradius 17.7256
rwrist 23.5646
rhand -10.8433 -51.471
rfingers 7.12502
rthumb 15.1715 -80.8948
lclavicle -8.94531e-016 2.8625e-014
lhumerus -22.0228 -4.17995 85.0438
lradius 19.5619
lwrist -5.69135
lhand -31.7407 -19.3247
lfingers 7.12502
lthumb -4.99833 10.5964
rfemur -57.0082 3.72929 19.603
rtibia 71.6886
rfoot -46.2689 -16.1746
rtoes -29.4491
lfemur -60.1081 -10.1151 -17.5533
ltibia 72.8919
lfoot -29.7398 -1.12467
ltoes -48.5968
432
root 9.74418 13.9694 18.846 4.46483 -78.3118 -340.249
lowerback -12.9523 -0.916241 -4.45591
upperback -0.760068 -0.48283 -2.28658
thorax 6.48869 -0.363367 0.00727497
lowerneck -1.88503 -1.71459 0.868566
upperneck -13.5353 -2.37506 2.03385
head -4.07062 -1.43044 0.603495
rclavicle 7.85199e-015 -7.15625e-015
rhumerus -29.5424 -32.1751 -75.8942
rradius 17.4644
rwrist 25.0184
rhand -11.0731 -51.3982
rfingers 7.12502
rthumb 14.9501 -80.8386
lclavicle 7.85199e-015 -7.15625e-015
lhumerus -21.6806 -3.16835 84.9011
lradius 19.2374
lwrist -6.64659
lhand -31.4256 -18.6224
lfingers 7.12502
lthumb -4.69414 11.3056
rfemur -56.5392 4.10374 19.2784
rtibia 70.4367
rfoot -45.7058 -16.1656
rtoes -29.7413
lfemur -59.3676 -10.3241 -17.5728
ltibia 71.5395
lfoot -29.7774 -0.528448
ltoes -48.4123
433
root 9.76654 14.0623 18.8503 3.96421 -78.6112 -339.724
lowerback -13.0181 -0.988056 -4.44629
upperback -0.829839 -0.583992 -2.22537
thorax 6.45493 -0.412789 0.0479191
lowerneck -1.59362 -1.62335 0.78618
upperneck -13.5848 -2.2373 2.1029
head -4.14377 -1.36131 0.641625
rclavicle 2.25621e-014 3.10104e-014
rhumerus -28.7058 -28.9878 -77.3608
rradius 17.1713
rwrist 21.6304
rhand -11.8828 -51.8049
rfingers 7.12502
rthumb 14.1699 -81.3017
lclavicle 2.25621e-014 3.10104e-014
lhumerus -21.2853 -1.84136 84.6569
lradius 18.6419
lwrist -8.08045
lhand -30.9643 -18.3232
lfingers 7.12502
lthumb -4.24863 11.6142
rfemur -56.0864 4.1799 19.1167
rtibia 69.1865
rfoot -45.0945 -16.2005
rtoes -30.5582
lfemur -58.6862 -10.5237 -17.5398
ltibia 70.2027
lfoot -29.7595 -0.0721255
ltoes -48.0232
434
root 9.79225 14.1591 18.8557 3.50716 -78.8854 -339.124
lowerback -13.1445 -1.05875 -4.46103
upperback -0.915285 -0.680183 -2.10881
thorax 6.43928 -0.461179 0.160809
lowerneck -1.36889 -1.54096 0.157864
upperneck -13.7169 -2.10165 2.42098
head -4.22615 -1.27907 0.85867
rclavicle -2.00773e-014 9.93923e-015
rhumerus -28.6731 -30.9902 -76.5616
rradius 16.6894
rwrist 23.7436
rhand -12.2191 -51.7185
rfingers 7.12502
rthumb 13.8458 -81.2377
lclavicle -2.00773e-014 9.93923e-015
lhumerus -21.0838 -1.91577 84.7681
lradius 18.352
lwrist -8.00149
lhand -30.8967 -18.3213
lfingers 7.12502
lthumb -4.18339 11.6174
rfemur -55.6315 4.52699 18.7373
rtibia 67.6225
rfoot -44.4511 -15.8798
rtoes -30.1424
lfemur -58.1538 -10.712 -17.5343
ltibia 68.8652
lfoot -29.6783 0.382873
ltoes -47.513
435
root 9.81098 14.2535 18.8682 2.25712 -79.3165 -337.664
lowerback -13.4176 -1.09627 -4.60676
upperback -1.04636 -0.707028 -2.00226
thorax 6.45594 -0.48013 0.347631
lowerneck -1.24909 -1.71676 -0.44019
upperneck -13.6067 -2.32736 2.63686
head -4.19729 -1.3681 1.04246
rclavicle -8.24956e-015 -1.82882e-014
rhumerus -29.0321 -32.199 -75.8879
rradius 16.7922
rwrist 25.1931
rhand -12.0086 -51.8085
rfingers 7.12502
rthumb 14.0487 -81.3137
lclavicle -8.24956e-015 -1.82882e-014
lhumerus -21.1025 -2.59533 85.1483
lradius 18.2338
lwrist -7.23309
lhand -31.0971 -18.4281
lfingers 7.12502
lthumb -4.37692 11.5066
rfemur -55.3466 5.17493 18.0453
rtibia 66.0836
rfoot -43.8176 -15.1634
rtoes -28.2885
lfemur -57.5591 -10.8539 -17.6948
ltibia 67.4089
lfoot -29.5883 0.901452
ltoes -47.2061
436
root 9.82374 14.3452 18.8811 1.05289 -79.8232 -336.302
lowerback -13.7152 -1.07371 -4.68413
upperback -1.18576 -0.661537 -1.922
thorax 6.47283 -0.461512 0.481822
lowerneck -1.42131 -1.40316 0.0976493
upperneck -13.4051 -1.9654 1.93987
head -4.10832 -1.18165 0.698494
rclavicle 2.11706e-014 2.66371e-014
rhumerus -29.3463 -32.1767 -75.6764
rradius 17.1541
rwrist 25.3114
rhand -11.5415 -52.1983
rfingers 7.12502
rthumb 14.4988 -81.6718
lclavicle 2.11706e-014 2.66371e-014
lhumerus -21.1004 -2.70991 85.4667
lradius 17.9972
lwrist -7.33845
lhand -31.2767 -18.6076
lfingers 7.12502
lthumb -4.55037 11.3235
rfemur -55.0056 5.37691 17.9299
rtibia 65.1025
rfoot -42.9799 -16.5489
rtoes -32.7362
lfemur -56.8465 -11.0133 -17.7857
ltibia 65.8891
lfoot -29.4919 1.54958
ltoes -46.9498
